<svg width="222" height="222" viewBox="0 0 222 222" fill="none" xmlns="http://www.w3.org/2000/svg">
<g clip-path="url(#clip0_170_25)">
<path d="M222 0H0V222H222V0Z" fill="#FAFAFA"/>
<path d="M19.7333 19.7333H24.6667V24.6667H19.7333V19.7333ZM24.6667 19.7333H29.6V24.6667H24.6667V19.7333ZM29.6 19.7333H34.5333V24.6667H29.6V19.7333ZM34.5333 19.7333H39.4667V24.6667H34.5333V19.7333ZM39.4667 19.7333H44.4V24.6667H39.4667V19.7333ZM44.4 19.7333H49.3333V24.6667H44.4V19.7333ZM49.3333 19.7333H54.2667V24.6667H49.3333V19.7333ZM64.1333 19.7333H69.0667V24.6667H64.1333V19.7333ZM69.0667 19.7333H74V24.6667H69.0667V19.7333ZM83.8667 19.7333H88.8V24.6667H83.8667V19.7333ZM88.8 19.7333H93.7333V24.6667H88.8V19.7333ZM93.7333 19.7333H98.6667V24.6667H93.7333V19.7333ZM98.6667 19.7333H103.6V24.6667H98.6667V19.7333ZM103.6 19.7333H108.533V24.6667H103.6V19.7333ZM108.533 19.7333H113.467V24.6667H108.533V19.7333ZM123.333 19.7333H128.267V24.6667H123.333V19.7333ZM143.067 19.7333H148V24.6667H143.067V19.7333ZM157.867 19.7333H162.8V24.6667H157.867V19.7333ZM167.733 19.7333H172.667V24.6667H167.733V19.7333ZM172.667 19.7333H177.6V24.6667H172.667V19.7333ZM177.6 19.7333H182.533V24.6667H177.6V19.7333ZM182.533 19.7333H187.467V24.6667H182.533V19.7333ZM187.467 19.7333H192.4V24.6667H187.467V19.7333ZM192.4 19.7333H197.333V24.6667H192.4V19.7333ZM197.333 19.7333H202.267V24.6667H197.333V19.7333ZM19.7333 24.6667H24.6667V29.6H19.7333V24.6667ZM49.3333 24.6667H54.2667V29.6H49.3333V24.6667ZM64.1333 24.6667H69.0667V29.6H64.1333V24.6667ZM74 24.6667H78.9333V29.6H74V24.6667ZM78.9333 24.6667H83.8667V29.6H78.9333V24.6667ZM83.8667 24.6667H88.8V29.6H83.8667V24.6667ZM88.8 24.6667H93.7333V29.6H88.8V24.6667ZM108.533 24.6667H113.467V29.6H108.533V24.6667ZM118.4 24.6667H123.333V29.6H118.4V24.6667ZM123.333 24.6667H128.267V29.6H123.333V24.6667ZM128.267 24.6667H133.2V29.6H128.267V24.6667ZM133.2 24.6667H138.133V29.6H133.2V24.6667ZM138.133 24.6667H143.067V29.6H138.133V24.6667ZM167.733 24.6667H172.667V29.6H167.733V24.6667ZM197.333 24.6667H202.267V29.6H197.333V24.6667ZM19.7333 29.6H24.6667V34.5333H19.7333V29.6ZM29.6 29.6H34.5333V34.5333H29.6V29.6ZM34.5333 29.6H39.4667V34.5333H34.5333V29.6ZM39.4667 29.6H44.4V34.5333H39.4667V29.6ZM49.3333 29.6H54.2667V34.5333H49.3333V29.6ZM64.1333 29.6H69.0667V34.5333H64.1333V29.6ZM69.0667 29.6H74V34.5333H69.0667V29.6ZM83.8667 29.6H88.8V34.5333H83.8667V29.6ZM93.7333 29.6H98.6667V34.5333H93.7333V29.6ZM98.6667 29.6H103.6V34.5333H98.6667V29.6ZM108.533 29.6H113.467V34.5333H108.533V29.6ZM113.467 29.6H118.4V34.5333H113.467V29.6ZM118.4 29.6H123.333V34.5333H118.4V29.6ZM143.067 29.6H148V34.5333H143.067V29.6ZM148 29.6H152.933V34.5333H148V29.6ZM167.733 29.6H172.667V34.5333H167.733V29.6ZM177.6 29.6H182.533V34.5333H177.6V29.6ZM182.533 29.6H187.467V34.5333H182.533V29.6ZM187.467 29.6H192.4V34.5333H187.467V29.6ZM197.333 29.6H202.267V34.5333H197.333V29.6ZM19.7333 34.5333H24.6667V39.4667H19.7333V34.5333ZM29.6 34.5333H34.5333V39.4667H29.6V34.5333ZM34.5333 34.5333H39.4667V39.4667H34.5333V34.5333ZM39.4667 34.5333H44.4V39.4667H39.4667V34.5333ZM49.3333 34.5333H54.2667V39.4667H49.3333V34.5333ZM69.0667 34.5333H74V39.4667H69.0667V34.5333ZM78.9333 34.5333H83.8667V39.4667H78.9333V34.5333ZM88.8 34.5333H93.7333V39.4667H88.8V34.5333ZM93.7333 34.5333H98.6667V39.4667H93.7333V34.5333ZM103.6 34.5333H108.533V39.4667H103.6V34.5333ZM108.533 34.5333H113.467V39.4667H108.533V34.5333ZM113.467 34.5333H118.4V39.4667H113.467V34.5333ZM128.267 34.5333H133.2V39.4667H128.267V34.5333ZM133.2 34.5333H138.133V39.4667H133.2V34.5333ZM143.067 34.5333H148V39.4667H143.067V34.5333ZM148 34.5333H152.933V39.4667H148V34.5333ZM152.933 34.5333H157.867V39.4667H152.933V34.5333ZM167.733 34.5333H172.667V39.4667H167.733V34.5333ZM177.6 34.5333H182.533V39.4667H177.6V34.5333ZM182.533 34.5333H187.467V39.4667H182.533V34.5333ZM187.467 34.5333H192.4V39.4667H187.467V34.5333ZM197.333 34.5333H202.267V39.4667H197.333V34.5333ZM19.7333 39.4667H24.6667V44.4H19.7333V39.4667ZM29.6 39.4667H34.5333V44.4H29.6V39.4667ZM34.5333 39.4667H39.4667V44.4H34.5333V39.4667ZM39.4667 39.4667H44.4V44.4H39.4667V39.4667ZM49.3333 39.4667H54.2667V44.4H49.3333V39.4667ZM59.2 39.4667H64.1333V44.4H59.2V39.4667ZM69.0667 39.4667H74V44.4H69.0667V39.4667ZM78.9333 39.4667H83.8667V44.4H78.9333V39.4667ZM93.7333 39.4667H98.6667V44.4H93.7333V39.4667ZM103.6 39.4667H108.533V44.4H103.6V39.4667ZM113.467 39.4667H118.4V44.4H113.467V39.4667ZM123.333 39.4667H128.267V44.4H123.333V39.4667ZM143.067 39.4667H148V44.4H143.067V39.4667ZM148 39.4667H152.933V44.4H148V39.4667ZM152.933 39.4667H157.867V44.4H152.933V39.4667ZM167.733 39.4667H172.667V44.4H167.733V39.4667ZM177.6 39.4667H182.533V44.4H177.6V39.4667ZM182.533 39.4667H187.467V44.4H182.533V39.4667ZM187.467 39.4667H192.4V44.4H187.467V39.4667ZM197.333 39.4667H202.267V44.4H197.333V39.4667ZM19.7333 44.4H24.6667V49.3333H19.7333V44.4ZM49.3333 44.4H54.2667V49.3333H49.3333V44.4ZM83.8667 44.4H88.8V49.3333H83.8667V44.4ZM88.8 44.4H93.7333V49.3333H88.8V44.4ZM93.7333 44.4H98.6667V49.3333H93.7333V44.4ZM103.6 44.4H108.533V49.3333H103.6V44.4ZM108.533 44.4H113.467V49.3333H108.533V44.4ZM113.467 44.4H118.4V49.3333H113.467V44.4ZM118.4 44.4H123.333V49.3333H118.4V44.4ZM133.2 44.4H138.133V49.3333H133.2V44.4ZM138.133 44.4H143.067V49.3333H138.133V44.4ZM148 44.4H152.933V49.3333H148V44.4ZM167.733 44.4H172.667V49.3333H167.733V44.4ZM197.333 44.4H202.267V49.3333H197.333V44.4ZM19.7333 49.3333H24.6667V54.2667H19.7333V49.3333ZM24.6667 49.3333H29.6V54.2667H24.6667V49.3333ZM29.6 49.3333H34.5333V54.2667H29.6V49.3333ZM34.5333 49.3333H39.4667V54.2667H34.5333V49.3333ZM39.4667 49.3333H44.4V54.2667H39.4667V49.3333ZM44.4 49.3333H49.3333V54.2667H44.4V49.3333ZM49.3333 49.3333H54.2667V54.2667H49.3333V49.3333ZM59.2 49.3333H64.1333V54.2667H59.2V49.3333ZM69.0667 49.3333H74V54.2667H69.0667V49.3333ZM78.9333 49.3333H83.8667V54.2667H78.9333V49.3333ZM88.8 49.3333H93.7333V54.2667H88.8V49.3333ZM98.6667 49.3333H103.6V54.2667H98.6667V49.3333ZM108.533 49.3333H113.467V54.2667H108.533V49.3333ZM118.4 49.3333H123.333V54.2667H118.4V49.3333ZM128.267 49.3333H133.2V54.2667H128.267V49.3333ZM138.133 49.3333H143.067V54.2667H138.133V49.3333ZM148 49.3333H152.933V54.2667H148V49.3333ZM157.867 49.3333H162.8V54.2667H157.867V49.3333ZM167.733 49.3333H172.667V54.2667H167.733V49.3333ZM172.667 49.3333H177.6V54.2667H172.667V49.3333ZM177.6 49.3333H182.533V54.2667H177.6V49.3333ZM182.533 49.3333H187.467V54.2667H182.533V49.3333ZM187.467 49.3333H192.4V54.2667H187.467V49.3333ZM192.4 49.3333H197.333V54.2667H192.4V49.3333ZM197.333 49.3333H202.267V54.2667H197.333V49.3333ZM59.2 54.2667H64.1333V59.2H59.2V54.2667ZM64.1333 54.2667H69.0667V59.2H64.1333V54.2667ZM69.0667 54.2667H74V59.2H69.0667V54.2667ZM83.8667 54.2667H88.8V59.2H83.8667V54.2667ZM88.8 54.2667H93.7333V59.2H88.8V54.2667ZM108.533 54.2667H113.467V59.2H108.533V54.2667ZM113.467 54.2667H118.4V59.2H113.467V54.2667ZM118.4 54.2667H123.333V59.2H118.4V54.2667ZM128.267 54.2667H133.2V59.2H128.267V54.2667ZM143.067 54.2667H148V59.2H143.067V54.2667ZM148 54.2667H152.933V59.2H148V54.2667ZM152.933 54.2667H157.867V59.2H152.933V54.2667ZM157.867 54.2667H162.8V59.2H157.867V54.2667ZM29.6 59.2H34.5333V64.1333H29.6V59.2ZM34.5333 59.2H39.4667V64.1333H34.5333V59.2ZM49.3333 59.2H54.2667V64.1333H49.3333V59.2ZM54.2667 59.2H59.2V64.1333H54.2667V59.2ZM59.2 59.2H64.1333V64.1333H59.2V59.2ZM69.0667 59.2H74V64.1333H69.0667V59.2ZM78.9333 59.2H83.8667V64.1333H78.9333V59.2ZM83.8667 59.2H88.8V64.1333H83.8667V59.2ZM88.8 59.2H93.7333V64.1333H88.8V59.2ZM93.7333 59.2H98.6667V64.1333H93.7333V59.2ZM108.533 59.2H113.467V64.1333H108.533V59.2ZM118.4 59.2H123.333V64.1333H118.4V59.2ZM123.333 59.2H128.267V64.1333H123.333V59.2ZM128.267 59.2H133.2V64.1333H128.267V59.2ZM133.2 59.2H138.133V64.1333H133.2V59.2ZM143.067 59.2H148V64.1333H143.067V59.2ZM148 59.2H152.933V64.1333H148V59.2ZM152.933 59.2H157.867V64.1333H152.933V59.2ZM157.867 59.2H162.8V64.1333H157.867V59.2ZM162.8 59.2H167.733V64.1333H162.8V59.2ZM167.733 59.2H172.667V64.1333H167.733V59.2ZM177.6 59.2H182.533V64.1333H177.6V59.2ZM19.7333 64.1333H24.6667V69.0667H19.7333V64.1333ZM34.5333 64.1333H39.4667V69.0667H34.5333V64.1333ZM39.4667 64.1333H44.4V69.0667H39.4667V64.1333ZM64.1333 64.1333H69.0667V69.0667H64.1333V64.1333ZM74 64.1333H78.9333V69.0667H74V64.1333ZM83.8667 64.1333H88.8V69.0667H83.8667V64.1333ZM88.8 64.1333H93.7333V69.0667H88.8V64.1333ZM93.7333 64.1333H98.6667V69.0667H93.7333V64.1333ZM98.6667 64.1333H103.6V69.0667H98.6667V64.1333ZM103.6 64.1333H108.533V69.0667H103.6V64.1333ZM108.533 64.1333H113.467V69.0667H108.533V64.1333ZM113.467 64.1333H118.4V69.0667H113.467V64.1333ZM118.4 64.1333H123.333V69.0667H118.4V64.1333ZM128.267 64.1333H133.2V69.0667H128.267V64.1333ZM133.2 64.1333H138.133V69.0667H133.2V64.1333ZM138.133 64.1333H143.067V69.0667H138.133V64.1333ZM143.067 64.1333H148V69.0667H143.067V64.1333ZM152.933 64.1333H157.867V69.0667H152.933V64.1333ZM172.667 64.1333H177.6V69.0667H172.667V64.1333ZM182.533 64.1333H187.467V69.0667H182.533V64.1333ZM29.6 69.0667H34.5333V74H29.6V69.0667ZM49.3333 69.0667H54.2667V74H49.3333V69.0667ZM54.2667 69.0667H59.2V74H54.2667V69.0667ZM59.2 69.0667H64.1333V74H59.2V69.0667ZM64.1333 69.0667H69.0667V74H64.1333V69.0667ZM69.0667 69.0667H74V74H69.0667V69.0667ZM78.9333 69.0667H83.8667V74H78.9333V69.0667ZM83.8667 69.0667H88.8V74H83.8667V69.0667ZM88.8 69.0667H93.7333V74H88.8V69.0667ZM108.533 69.0667H113.467V74H108.533V69.0667ZM113.467 69.0667H118.4V74H113.467V69.0667ZM123.333 69.0667H128.267V74H123.333V69.0667ZM133.2 69.0667H138.133V74H133.2V69.0667ZM143.067 69.0667H148V74H143.067V69.0667ZM157.867 69.0667H162.8V74H157.867V69.0667ZM162.8 69.0667H167.733V74H162.8V69.0667ZM182.533 69.0667H187.467V74H182.533V69.0667ZM187.467 69.0667H192.4V74H187.467V69.0667ZM24.6667 74H29.6V78.9333H24.6667V74ZM39.4667 74H44.4V78.9333H39.4667V74ZM44.4 74H49.3333V78.9333H44.4V74ZM54.2667 74H59.2V78.9333H54.2667V74ZM59.2 74H64.1333V78.9333H59.2V74ZM74 74H78.9333V78.9333H74V74ZM83.8667 74H88.8V78.9333H83.8667V74ZM88.8 74H93.7333V78.9333H88.8V74ZM93.7333 74H98.6667V78.9333H93.7333V74ZM103.6 74H108.533V78.9333H103.6V74ZM108.533 74H113.467V78.9333H108.533V74ZM123.333 74H128.267V78.9333H123.333V74ZM138.133 74H143.067V78.9333H138.133V74ZM143.067 74H148V78.9333H143.067V74ZM148 74H152.933V78.9333H148V74ZM152.933 74H157.867V78.9333H152.933V74ZM182.533 74H187.467V78.9333H182.533V74ZM187.467 74H192.4V78.9333H187.467V74ZM197.333 74H202.267V78.9333H197.333V74ZM19.7333 78.9333H24.6667V83.8667H19.7333V78.9333ZM24.6667 78.9333H29.6V83.8667H24.6667V78.9333ZM29.6 78.9333H34.5333V83.8667H29.6V78.9333ZM34.5333 78.9333H39.4667V83.8667H34.5333V78.9333ZM39.4667 78.9333H44.4V83.8667H39.4667V78.9333ZM44.4 78.9333H49.3333V83.8667H44.4V78.9333ZM49.3333 78.9333H54.2667V83.8667H49.3333V78.9333ZM59.2 78.9333H64.1333V83.8667H59.2V78.9333ZM74 78.9333H78.9333V83.8667H74V78.9333ZM78.9333 78.9333H83.8667V83.8667H78.9333V78.9333ZM83.8667 78.9333H88.8V83.8667H83.8667V78.9333ZM88.8 78.9333H93.7333V83.8667H88.8V78.9333ZM103.6 78.9333H108.533V83.8667H103.6V78.9333ZM118.4 78.9333H123.333V83.8667H118.4V78.9333ZM123.333 78.9333H128.267V83.8667H123.333V78.9333ZM133.2 78.9333H138.133V83.8667H133.2V78.9333ZM143.067 78.9333H148V83.8667H143.067V78.9333ZM148 78.9333H152.933V83.8667H148V78.9333ZM162.8 78.9333H167.733V83.8667H162.8V78.9333ZM167.733 78.9333H172.667V83.8667H167.733V78.9333ZM172.667 78.9333H177.6V83.8667H172.667V78.9333ZM177.6 78.9333H182.533V83.8667H177.6V78.9333ZM182.533 78.9333H187.467V83.8667H182.533V78.9333ZM187.467 78.9333H192.4V83.8667H187.467V78.9333ZM192.4 78.9333H197.333V83.8667H192.4V78.9333ZM29.6 83.8667H34.5333V88.8H29.6V83.8667ZM34.5333 83.8667H39.4667V88.8H34.5333V83.8667ZM44.4 83.8667H49.3333V88.8H44.4V83.8667ZM54.2667 83.8667H59.2V88.8H54.2667V83.8667ZM59.2 83.8667H64.1333V88.8H59.2V83.8667ZM64.1333 83.8667H69.0667V88.8H64.1333V83.8667ZM69.0667 83.8667H74V88.8H69.0667V83.8667ZM103.6 83.8667H108.533V88.8H103.6V83.8667ZM113.467 83.8667H118.4V88.8H113.467V83.8667ZM133.2 83.8667H138.133V88.8H133.2V83.8667ZM138.133 83.8667H143.067V88.8H138.133V83.8667ZM143.067 83.8667H148V88.8H143.067V83.8667ZM148 83.8667H152.933V88.8H148V83.8667ZM152.933 83.8667H157.867V88.8H152.933V83.8667ZM157.867 83.8667H162.8V88.8H157.867V83.8667ZM167.733 83.8667H172.667V88.8H167.733V83.8667ZM172.667 83.8667H177.6V88.8H172.667V83.8667ZM177.6 83.8667H182.533V88.8H177.6V83.8667ZM187.467 83.8667H192.4V88.8H187.467V83.8667ZM197.333 83.8667H202.267V88.8H197.333V83.8667ZM29.6 88.8H34.5333V93.7333H29.6V88.8ZM44.4 88.8H49.3333V93.7333H44.4V88.8ZM49.3333 88.8H54.2667V93.7333H49.3333V88.8ZM64.1333 88.8H69.0667V93.7333H64.1333V88.8ZM69.0667 88.8H74V93.7333H69.0667V88.8ZM78.9333 88.8H83.8667V93.7333H78.9333V88.8ZM83.8667 88.8H88.8V93.7333H83.8667V88.8ZM88.8 88.8H93.7333V93.7333H88.8V88.8ZM98.6667 88.8H103.6V93.7333H98.6667V88.8ZM103.6 88.8H108.533V93.7333H103.6V88.8ZM108.533 88.8H113.467V93.7333H108.533V88.8ZM113.467 88.8H118.4V93.7333H113.467V88.8ZM123.333 88.8H128.267V93.7333H123.333V88.8ZM143.067 88.8H148V93.7333H143.067V88.8ZM162.8 88.8H167.733V93.7333H162.8V88.8ZM167.733 88.8H172.667V93.7333H167.733V88.8ZM177.6 88.8H182.533V93.7333H177.6V88.8ZM187.467 88.8H192.4V93.7333H187.467V88.8ZM192.4 88.8H197.333V93.7333H192.4V88.8ZM24.6667 93.7333H29.6V98.6667H24.6667V93.7333ZM59.2 93.7333H64.1333V98.6667H59.2V93.7333ZM64.1333 93.7333H69.0667V98.6667H64.1333V93.7333ZM69.0667 93.7333H74V98.6667H69.0667V93.7333ZM88.8 93.7333H93.7333V98.6667H88.8V93.7333ZM93.7333 93.7333H98.6667V98.6667H93.7333V93.7333ZM118.4 93.7333H123.333V98.6667H118.4V93.7333ZM123.333 93.7333H128.267V98.6667H123.333V93.7333ZM128.267 93.7333H133.2V98.6667H128.267V93.7333ZM133.2 93.7333H138.133V98.6667H133.2V93.7333ZM138.133 93.7333H143.067V98.6667H138.133V93.7333ZM152.933 93.7333H157.867V98.6667H152.933V93.7333ZM157.867 93.7333H162.8V98.6667H157.867V93.7333ZM172.667 93.7333H177.6V98.6667H172.667V93.7333ZM177.6 93.7333H182.533V98.6667H177.6V93.7333ZM19.7333 98.6667H24.6667V103.6H19.7333V98.6667ZM24.6667 98.6667H29.6V103.6H24.6667V98.6667ZM39.4667 98.6667H44.4V103.6H39.4667V98.6667ZM44.4 98.6667H49.3333V103.6H44.4V98.6667ZM49.3333 98.6667H54.2667V103.6H49.3333V98.6667ZM54.2667 98.6667H59.2V103.6H54.2667V98.6667ZM74 98.6667H78.9333V103.6H74V98.6667ZM103.6 98.6667H108.533V103.6H103.6V98.6667ZM123.333 98.6667H128.267V103.6H123.333V98.6667ZM128.267 98.6667H133.2V103.6H128.267V98.6667ZM143.067 98.6667H148V103.6H143.067V98.6667ZM157.867 98.6667H162.8V103.6H157.867V98.6667ZM182.533 98.6667H187.467V103.6H182.533V98.6667ZM187.467 98.6667H192.4V103.6H187.467V98.6667ZM192.4 98.6667H197.333V103.6H192.4V98.6667ZM197.333 98.6667H202.267V103.6H197.333V98.6667ZM19.7333 103.6H24.6667V108.533H19.7333V103.6ZM24.6667 103.6H29.6V108.533H24.6667V103.6ZM29.6 103.6H34.5333V108.533H29.6V103.6ZM34.5333 103.6H39.4667V108.533H34.5333V103.6ZM44.4 103.6H49.3333V108.533H44.4V103.6ZM54.2667 103.6H59.2V108.533H54.2667V103.6ZM59.2 103.6H64.1333V108.533H59.2V103.6ZM69.0667 103.6H74V108.533H69.0667V103.6ZM83.8667 103.6H88.8V108.533H83.8667V103.6ZM108.533 103.6H113.467V108.533H108.533V103.6ZM123.333 103.6H128.267V108.533H123.333V103.6ZM133.2 103.6H138.133V108.533H133.2V103.6ZM138.133 103.6H143.067V108.533H138.133V103.6ZM148 103.6H152.933V108.533H148V103.6ZM152.933 103.6H157.867V108.533H152.933V103.6ZM167.733 103.6H172.667V108.533H167.733V103.6ZM172.667 103.6H177.6V108.533H172.667V103.6ZM187.467 103.6H192.4V108.533H187.467V103.6ZM197.333 103.6H202.267V108.533H197.333V103.6ZM19.7333 108.533H24.6667V113.467H19.7333V108.533ZM39.4667 108.533H44.4V113.467H39.4667V108.533ZM49.3333 108.533H54.2667V113.467H49.3333V108.533ZM54.2667 108.533H59.2V113.467H54.2667V108.533ZM64.1333 108.533H69.0667V113.467H64.1333V108.533ZM69.0667 108.533H74V113.467H69.0667V108.533ZM74 108.533H78.9333V113.467H74V108.533ZM78.9333 108.533H83.8667V113.467H78.9333V108.533ZM108.533 108.533H113.467V113.467H108.533V108.533ZM123.333 108.533H128.267V113.467H123.333V108.533ZM152.933 108.533H157.867V113.467H152.933V108.533ZM157.867 108.533H162.8V113.467H157.867V108.533ZM167.733 108.533H172.667V113.467H167.733V108.533ZM177.6 108.533H182.533V113.467H177.6V108.533ZM182.533 108.533H187.467V113.467H182.533V108.533ZM187.467 108.533H192.4V113.467H187.467V108.533ZM192.4 108.533H197.333V113.467H192.4V108.533ZM197.333 108.533H202.267V113.467H197.333V108.533ZM39.4667 113.467H44.4V118.4H39.4667V113.467ZM44.4 113.467H49.3333V118.4H44.4V113.467ZM59.2 113.467H64.1333V118.4H59.2V113.467ZM74 113.467H78.9333V118.4H74V113.467ZM78.9333 113.467H83.8667V118.4H78.9333V113.467ZM83.8667 113.467H88.8V118.4H83.8667V113.467ZM93.7333 113.467H98.6667V118.4H93.7333V113.467ZM98.6667 113.467H103.6V118.4H98.6667V113.467ZM113.467 113.467H118.4V118.4H113.467V113.467ZM118.4 113.467H123.333V118.4H118.4V113.467ZM128.267 113.467H133.2V118.4H128.267V113.467ZM133.2 113.467H138.133V118.4H133.2V113.467ZM162.8 113.467H167.733V118.4H162.8V113.467ZM172.667 113.467H177.6V118.4H172.667V113.467ZM177.6 113.467H182.533V118.4H177.6V113.467ZM182.533 113.467H187.467V118.4H182.533V113.467ZM192.4 113.467H197.333V118.4H192.4V113.467ZM19.7333 118.4H24.6667V123.333H19.7333V118.4ZM49.3333 118.4H54.2667V123.333H49.3333V118.4ZM54.2667 118.4H59.2V123.333H54.2667V118.4ZM74 118.4H78.9333V123.333H74V118.4ZM78.9333 118.4H83.8667V123.333H78.9333V118.4ZM83.8667 118.4H88.8V123.333H83.8667V118.4ZM108.533 118.4H113.467V123.333H108.533V118.4ZM123.333 118.4H128.267V123.333H123.333V118.4ZM128.267 118.4H133.2V123.333H128.267V118.4ZM148 118.4H152.933V123.333H148V118.4ZM152.933 118.4H157.867V123.333H152.933V118.4ZM157.867 118.4H162.8V123.333H157.867V118.4ZM162.8 118.4H167.733V123.333H162.8V118.4ZM177.6 118.4H182.533V123.333H177.6V118.4ZM197.333 118.4H202.267V123.333H197.333V118.4ZM39.4667 123.333H44.4V128.267H39.4667V123.333ZM54.2667 123.333H59.2V128.267H54.2667V123.333ZM69.0667 123.333H74V128.267H69.0667V123.333ZM74 123.333H78.9333V128.267H74V123.333ZM78.9333 123.333H83.8667V128.267H78.9333V123.333ZM103.6 123.333H108.533V128.267H103.6V123.333ZM113.467 123.333H118.4V128.267H113.467V123.333ZM118.4 123.333H123.333V128.267H118.4V123.333ZM128.267 123.333H133.2V128.267H128.267V123.333ZM148 123.333H152.933V128.267H148V123.333ZM162.8 123.333H167.733V128.267H162.8V123.333ZM172.667 123.333H177.6V128.267H172.667V123.333ZM182.533 123.333H187.467V128.267H182.533V123.333ZM187.467 123.333H192.4V128.267H187.467V123.333ZM192.4 123.333H197.333V128.267H192.4V123.333ZM24.6667 128.267H29.6V133.2H24.6667V128.267ZM39.4667 128.267H44.4V133.2H39.4667V128.267ZM44.4 128.267H49.3333V133.2H44.4V128.267ZM49.3333 128.267H54.2667V133.2H49.3333V128.267ZM59.2 128.267H64.1333V133.2H59.2V128.267ZM103.6 128.267H108.533V133.2H103.6V128.267ZM118.4 128.267H123.333V133.2H118.4V128.267ZM138.133 128.267H143.067V133.2H138.133V128.267ZM148 128.267H152.933V133.2H148V128.267ZM177.6 128.267H182.533V133.2H177.6V128.267ZM182.533 128.267H187.467V133.2H182.533V128.267ZM19.7333 133.2H24.6667V138.133H19.7333V133.2ZM29.6 133.2H34.5333V138.133H29.6V133.2ZM54.2667 133.2H59.2V138.133H54.2667V133.2ZM64.1333 133.2H69.0667V138.133H64.1333V133.2ZM74 133.2H78.9333V138.133H74V133.2ZM98.6667 133.2H103.6V138.133H98.6667V133.2ZM103.6 133.2H108.533V138.133H103.6V133.2ZM108.533 133.2H113.467V138.133H108.533V133.2ZM123.333 133.2H128.267V138.133H123.333V133.2ZM143.067 133.2H148V138.133H143.067V133.2ZM148 133.2H152.933V138.133H148V133.2ZM152.933 133.2H157.867V138.133H152.933V133.2ZM157.867 133.2H162.8V138.133H157.867V133.2ZM162.8 133.2H167.733V138.133H162.8V133.2ZM182.533 133.2H187.467V138.133H182.533V133.2ZM187.467 133.2H192.4V138.133H187.467V133.2ZM192.4 133.2H197.333V138.133H192.4V133.2ZM29.6 138.133H34.5333V143.067H29.6V138.133ZM34.5333 138.133H39.4667V143.067H34.5333V138.133ZM39.4667 138.133H44.4V143.067H39.4667V138.133ZM44.4 138.133H49.3333V143.067H44.4V138.133ZM49.3333 138.133H54.2667V143.067H49.3333V138.133ZM59.2 138.133H64.1333V143.067H59.2V138.133ZM64.1333 138.133H69.0667V143.067H64.1333V138.133ZM83.8667 138.133H88.8V143.067H83.8667V138.133ZM103.6 138.133H108.533V143.067H103.6V138.133ZM108.533 138.133H113.467V143.067H108.533V138.133ZM113.467 138.133H118.4V143.067H113.467V138.133ZM118.4 138.133H123.333V143.067H118.4V138.133ZM123.333 138.133H128.267V143.067H123.333V138.133ZM128.267 138.133H133.2V143.067H128.267V138.133ZM133.2 138.133H138.133V143.067H133.2V138.133ZM162.8 138.133H167.733V143.067H162.8V138.133ZM167.733 138.133H172.667V143.067H167.733V138.133ZM172.667 138.133H177.6V143.067H172.667V138.133ZM177.6 138.133H182.533V143.067H177.6V138.133ZM182.533 138.133H187.467V143.067H182.533V138.133ZM187.467 138.133H192.4V143.067H187.467V138.133ZM192.4 138.133H197.333V143.067H192.4V138.133ZM24.6667 143.067H29.6V148H24.6667V143.067ZM34.5333 143.067H39.4667V148H34.5333V143.067ZM39.4667 143.067H44.4V148H39.4667V143.067ZM54.2667 143.067H59.2V148H54.2667V143.067ZM59.2 143.067H64.1333V148H59.2V143.067ZM83.8667 143.067H88.8V148H83.8667V143.067ZM93.7333 143.067H98.6667V148H93.7333V143.067ZM118.4 143.067H123.333V148H118.4V143.067ZM123.333 143.067H128.267V148H123.333V143.067ZM128.267 143.067H133.2V148H128.267V143.067ZM133.2 143.067H138.133V148H133.2V143.067ZM143.067 143.067H148V148H143.067V143.067ZM152.933 143.067H157.867V148H152.933V143.067ZM167.733 143.067H172.667V148H167.733V143.067ZM172.667 143.067H177.6V148H172.667V143.067ZM177.6 143.067H182.533V148H177.6V143.067ZM187.467 143.067H192.4V148H187.467V143.067ZM192.4 143.067H197.333V148H192.4V143.067ZM197.333 143.067H202.267V148H197.333V143.067ZM24.6667 148H29.6V152.933H24.6667V148ZM29.6 148H34.5333V152.933H29.6V148ZM39.4667 148H44.4V152.933H39.4667V148ZM44.4 148H49.3333V152.933H44.4V148ZM49.3333 148H54.2667V152.933H49.3333V148ZM54.2667 148H59.2V152.933H54.2667V148ZM59.2 148H64.1333V152.933H59.2V148ZM64.1333 148H69.0667V152.933H64.1333V148ZM69.0667 148H74V152.933H69.0667V148ZM74 148H78.9333V152.933H74V148ZM88.8 148H93.7333V152.933H88.8V148ZM93.7333 148H98.6667V152.933H93.7333V148ZM98.6667 148H103.6V152.933H98.6667V148ZM108.533 148H113.467V152.933H108.533V148ZM118.4 148H123.333V152.933H118.4V148ZM123.333 148H128.267V152.933H123.333V148ZM128.267 148H133.2V152.933H128.267V148ZM138.133 148H143.067V152.933H138.133V148ZM143.067 148H148V152.933H143.067V148ZM157.867 148H162.8V152.933H157.867V148ZM172.667 148H177.6V152.933H172.667V148ZM182.533 148H187.467V152.933H182.533V148ZM187.467 148H192.4V152.933H187.467V148ZM19.7333 152.933H24.6667V157.867H19.7333V152.933ZM34.5333 152.933H39.4667V157.867H34.5333V152.933ZM39.4667 152.933H44.4V157.867H39.4667V152.933ZM64.1333 152.933H69.0667V157.867H64.1333V152.933ZM69.0667 152.933H74V157.867H69.0667V152.933ZM108.533 152.933H113.467V157.867H108.533V152.933ZM118.4 152.933H123.333V157.867H118.4V152.933ZM138.133 152.933H143.067V157.867H138.133V152.933ZM148 152.933H152.933V157.867H148V152.933ZM162.8 152.933H167.733V157.867H162.8V152.933ZM172.667 152.933H177.6V157.867H172.667V152.933ZM177.6 152.933H182.533V157.867H177.6V152.933ZM29.6 157.867H34.5333V162.8H29.6V157.867ZM39.4667 157.867H44.4V162.8H39.4667V157.867ZM44.4 157.867H49.3333V162.8H44.4V157.867ZM49.3333 157.867H54.2667V162.8H49.3333V157.867ZM64.1333 157.867H69.0667V162.8H64.1333V157.867ZM88.8 157.867H93.7333V162.8H88.8V157.867ZM98.6667 157.867H103.6V162.8H98.6667V157.867ZM103.6 157.867H108.533V162.8H103.6V157.867ZM118.4 157.867H123.333V162.8H118.4V157.867ZM123.333 157.867H128.267V162.8H123.333V157.867ZM128.267 157.867H133.2V162.8H128.267V157.867ZM133.2 157.867H138.133V162.8H133.2V157.867ZM143.067 157.867H148V162.8H143.067V157.867ZM157.867 157.867H162.8V162.8H157.867V157.867ZM162.8 157.867H167.733V162.8H162.8V157.867ZM167.733 157.867H172.667V162.8H167.733V157.867ZM172.667 157.867H177.6V162.8H172.667V157.867ZM177.6 157.867H182.533V162.8H177.6V157.867ZM187.467 157.867H192.4V162.8H187.467V157.867ZM192.4 157.867H197.333V162.8H192.4V157.867ZM59.2 162.8H64.1333V167.733H59.2V162.8ZM64.1333 162.8H69.0667V167.733H64.1333V162.8ZM69.0667 162.8H74V167.733H69.0667V162.8ZM74 162.8H78.9333V167.733H74V162.8ZM88.8 162.8H93.7333V167.733H88.8V162.8ZM93.7333 162.8H98.6667V167.733H93.7333V162.8ZM98.6667 162.8H103.6V167.733H98.6667V162.8ZM103.6 162.8H108.533V167.733H103.6V162.8ZM113.467 162.8H118.4V167.733H113.467V162.8ZM118.4 162.8H123.333V167.733H118.4V162.8ZM123.333 162.8H128.267V167.733H123.333V162.8ZM128.267 162.8H133.2V167.733H128.267V162.8ZM133.2 162.8H138.133V167.733H133.2V162.8ZM143.067 162.8H148V167.733H143.067V162.8ZM148 162.8H152.933V167.733H148V162.8ZM157.867 162.8H162.8V167.733H157.867V162.8ZM177.6 162.8H182.533V167.733H177.6V162.8ZM182.533 162.8H187.467V167.733H182.533V162.8ZM187.467 162.8H192.4V167.733H187.467V162.8ZM192.4 162.8H197.333V167.733H192.4V162.8ZM197.333 162.8H202.267V167.733H197.333V162.8ZM19.7333 167.733H24.6667V172.667H19.7333V167.733ZM24.6667 167.733H29.6V172.667H24.6667V167.733ZM29.6 167.733H34.5333V172.667H29.6V167.733ZM34.5333 167.733H39.4667V172.667H34.5333V167.733ZM39.4667 167.733H44.4V172.667H39.4667V167.733ZM44.4 167.733H49.3333V172.667H44.4V167.733ZM49.3333 167.733H54.2667V172.667H49.3333V167.733ZM59.2 167.733H64.1333V172.667H59.2V167.733ZM78.9333 167.733H83.8667V172.667H78.9333V167.733ZM88.8 167.733H93.7333V172.667H88.8V167.733ZM93.7333 167.733H98.6667V172.667H93.7333V167.733ZM98.6667 167.733H103.6V172.667H98.6667V167.733ZM103.6 167.733H108.533V172.667H103.6V167.733ZM148 167.733H152.933V172.667H148V167.733ZM157.867 167.733H162.8V172.667H157.867V167.733ZM167.733 167.733H172.667V172.667H167.733V167.733ZM177.6 167.733H182.533V172.667H177.6V167.733ZM182.533 167.733H187.467V172.667H182.533V167.733ZM192.4 167.733H197.333V172.667H192.4V167.733ZM197.333 167.733H202.267V172.667H197.333V167.733ZM19.7333 172.667H24.6667V177.6H19.7333V172.667ZM49.3333 172.667H54.2667V177.6H49.3333V172.667ZM64.1333 172.667H69.0667V177.6H64.1333V172.667ZM74 172.667H78.9333V177.6H74V172.667ZM78.9333 172.667H83.8667V177.6H78.9333V172.667ZM83.8667 172.667H88.8V177.6H83.8667V172.667ZM98.6667 172.667H103.6V177.6H98.6667V172.667ZM108.533 172.667H113.467V177.6H108.533V172.667ZM123.333 172.667H128.267V177.6H123.333V172.667ZM133.2 172.667H138.133V177.6H133.2V172.667ZM138.133 172.667H143.067V177.6H138.133V172.667ZM152.933 172.667H157.867V177.6H152.933V172.667ZM157.867 172.667H162.8V177.6H157.867V172.667ZM177.6 172.667H182.533V177.6H177.6V172.667ZM182.533 172.667H187.467V177.6H182.533V172.667ZM192.4 172.667H197.333V177.6H192.4V172.667ZM19.7333 177.6H24.6667V182.533H19.7333V177.6ZM29.6 177.6H34.5333V182.533H29.6V177.6ZM34.5333 177.6H39.4667V182.533H34.5333V177.6ZM39.4667 177.6H44.4V182.533H39.4667V177.6ZM49.3333 177.6H54.2667V182.533H49.3333V177.6ZM64.1333 177.6H69.0667V182.533H64.1333V177.6ZM69.0667 177.6H74V182.533H69.0667V177.6ZM98.6667 177.6H103.6V182.533H98.6667V177.6ZM103.6 177.6H108.533V182.533H103.6V177.6ZM133.2 177.6H138.133V182.533H133.2V177.6ZM148 177.6H152.933V182.533H148V177.6ZM157.867 177.6H162.8V182.533H157.867V177.6ZM162.8 177.6H167.733V182.533H162.8V177.6ZM167.733 177.6H172.667V182.533H167.733V177.6ZM172.667 177.6H177.6V182.533H172.667V177.6ZM177.6 177.6H182.533V182.533H177.6V177.6ZM182.533 177.6H187.467V182.533H182.533V177.6ZM19.7333 182.533H24.6667V187.467H19.7333V182.533ZM29.6 182.533H34.5333V187.467H29.6V182.533ZM34.5333 182.533H39.4667V187.467H34.5333V182.533ZM39.4667 182.533H44.4V187.467H39.4667V182.533ZM49.3333 182.533H54.2667V187.467H49.3333V182.533ZM59.2 182.533H64.1333V187.467H59.2V182.533ZM74 182.533H78.9333V187.467H74V182.533ZM78.9333 182.533H83.8667V187.467H78.9333V182.533ZM83.8667 182.533H88.8V187.467H83.8667V182.533ZM93.7333 182.533H98.6667V187.467H93.7333V182.533ZM98.6667 182.533H103.6V187.467H98.6667V182.533ZM108.533 182.533H113.467V187.467H108.533V182.533ZM128.267 182.533H133.2V187.467H128.267V182.533ZM152.933 182.533H157.867V187.467H152.933V182.533ZM157.867 182.533H162.8V187.467H157.867V182.533ZM167.733 182.533H172.667V187.467H167.733V182.533ZM177.6 182.533H182.533V187.467H177.6V182.533ZM19.7333 187.467H24.6667V192.4H19.7333V187.467ZM29.6 187.467H34.5333V192.4H29.6V187.467ZM34.5333 187.467H39.4667V192.4H34.5333V187.467ZM39.4667 187.467H44.4V192.4H39.4667V187.467ZM49.3333 187.467H54.2667V192.4H49.3333V187.467ZM59.2 187.467H64.1333V192.4H59.2V187.467ZM64.1333 187.467H69.0667V192.4H64.1333V187.467ZM69.0667 187.467H74V192.4H69.0667V187.467ZM78.9333 187.467H83.8667V192.4H78.9333V187.467ZM98.6667 187.467H103.6V192.4H98.6667V187.467ZM103.6 187.467H108.533V192.4H103.6V187.467ZM113.467 187.467H118.4V192.4H113.467V187.467ZM123.333 187.467H128.267V192.4H123.333V187.467ZM167.733 187.467H172.667V192.4H167.733V187.467ZM177.6 187.467H182.533V192.4H177.6V187.467ZM182.533 187.467H187.467V192.4H182.533V187.467ZM192.4 187.467H197.333V192.4H192.4V187.467ZM19.7333 192.4H24.6667V197.333H19.7333V192.4ZM49.3333 192.4H54.2667V197.333H49.3333V192.4ZM64.1333 192.4H69.0667V197.333H64.1333V192.4ZM78.9333 192.4H83.8667V197.333H78.9333V192.4ZM83.8667 192.4H88.8V197.333H83.8667V192.4ZM88.8 192.4H93.7333V197.333H88.8V192.4ZM98.6667 192.4H103.6V197.333H98.6667V192.4ZM103.6 192.4H108.533V197.333H103.6V192.4ZM113.467 192.4H118.4V197.333H113.467V192.4ZM118.4 192.4H123.333V197.333H118.4V192.4ZM123.333 192.4H128.267V197.333H123.333V192.4ZM128.267 192.4H133.2V197.333H128.267V192.4ZM133.2 192.4H138.133V197.333H133.2V192.4ZM138.133 192.4H143.067V197.333H138.133V192.4ZM143.067 192.4H148V197.333H143.067V192.4ZM148 192.4H152.933V197.333H148V192.4ZM162.8 192.4H167.733V197.333H162.8V192.4ZM177.6 192.4H182.533V197.333H177.6V192.4ZM182.533 192.4H187.467V197.333H182.533V192.4ZM187.467 192.4H192.4V197.333H187.467V192.4ZM19.7333 197.333H24.6667V202.267H19.7333V197.333ZM24.6667 197.333H29.6V202.267H24.6667V197.333ZM29.6 197.333H34.5333V202.267H29.6V197.333ZM34.5333 197.333H39.4667V202.267H34.5333V197.333ZM39.4667 197.333H44.4V202.267H39.4667V197.333ZM44.4 197.333H49.3333V202.267H44.4V197.333ZM49.3333 197.333H54.2667V202.267H49.3333V197.333ZM64.1333 197.333H69.0667V202.267H64.1333V197.333ZM69.0667 197.333H74V202.267H69.0667V197.333ZM83.8667 197.333H88.8V202.267H83.8667V197.333ZM93.7333 197.333H98.6667V202.267H93.7333V197.333ZM103.6 197.333H108.533V202.267H103.6V197.333ZM108.533 197.333H113.467V202.267H108.533V197.333ZM128.267 197.333H133.2V202.267H128.267V197.333ZM133.2 197.333H138.133V202.267H133.2V197.333ZM138.133 197.333H143.067V202.267H138.133V197.333ZM143.067 197.333H148V202.267H143.067V197.333ZM148 197.333H152.933V202.267H148V197.333ZM162.8 197.333H167.733V202.267H162.8V197.333ZM172.667 197.333H177.6V202.267H172.667V197.333ZM177.6 197.333H182.533V202.267H177.6V197.333ZM187.467 197.333H192.4V202.267H187.467V197.333ZM192.4 197.333H197.333V202.267H192.4V197.333ZM197.333 197.333H202.267V202.267H197.333V197.333Z" fill="#999999"/>
</g>
<defs>
<clipPath id="clip0_170_25">
<rect width="222" height="222" fill="white"/>
</clipPath>
</defs>
</svg>
